PathFileType	4	(X/Y/Z)	C:/Users/Rosti/Documents/GitHub/TechForParalysis/Code/Model/04122019 - Marker Volunteer01/Rosti Data/New Session 103.trc	
DataRate	CameraRate	NumFrames	NumMarkers	Units	OrigDataRate	OrigDataStartFrame	OrigNumFrames	
100.00	100.00	15	14	mm	100.00	311	620	
Frame#	Time	C7			PX			T8			IJ			SC			AC			AI			TS			AA			GH			LE			ME			US			RS			
		X1	Y1	Z1	X2	Y2	Z2	X3	Y3	Z3	X4	Y4	Z4	X5	Y5	Z5	X6	Y6	Z6	X7	Y7	Z7	X8	Y8	Z8	X9	Y9	Z9	X10	Y10	Z10	X11	Y11	Z11	X12	Y12	Z12	X13	Y13	Z13	X14	Y14	Z14	

311	3.100	697.09436	15.47008	1534.31921	463.15546	-15.27886	1292.05859	763.83899	10.58758	1319.70593	532.08429	-12.15149	1434.97546	536.71246	13.04443	1442.47083	602.84460	159.48254	1474.01758	732.70697	97.49039	1453.02759	763.40216	95.17153	1337.13232	666.46063	214.03967	1427.02344	624.93945	221.49794	1443.27075	461.50702	293.26639	1212.62634	436.14667	197.65494	1176.30188	442.41092	170.83992	1443.65027	488.50879	234.23692	1445.04993 
312	3.110	697.07227	15.45601	1534.30396	463.14346	-15.28143	1292.04150	763.81403	10.58863	1319.69812	532.04553	-12.18936	1434.97534	536.69562	13.03007	1442.46448	602.79712	159.47035	1474.02356	732.66687	97.47739	1453.02856	763.36823	95.17492	1337.13684	666.42523	214.02148	1427.04028	624.89081	221.50563	1443.29590	461.51007	293.20782	1212.59888	436.19626	197.55986	1176.31482	442.14688	170.66045	1443.56641	488.16156	234.12619	1445.05627 
313	3.120	697.04791	15.44525	1534.28918	463.12811	-15.28763	1292.02759	763.79816	10.59204	1319.69409	532.00494	-12.22700	1434.97754	536.62909	12.99016	1442.48108	602.74438	159.46259	1474.03796	732.62854	97.46405	1453.02283	763.33057	95.17261	1337.13513	666.38245	214.01279	1427.05688	624.84308	221.52045	1443.32288	461.50601	293.15430	1212.56812	436.23239	197.48056	1176.27893	441.93851	170.49361	1443.48950	487.87747	234.03607	1445.06238 
314	3.130	697.02313	15.43639	1534.28308	463.10748	-15.29694	1292.01758	763.79095	10.59759	1319.69373	531.96344	-12.26375	1434.98242	536.56860	12.95237	1442.49731	602.69189	159.45459	1474.05994	732.59216	97.45232	1453.01733	763.28998	95.16634	1337.12891	666.33325	214.00267	1427.07239	624.79834	221.53758	1443.35229	461.49130	293.10828	1212.53882	436.27164	197.43323	1176.17505	441.77954	170.34668	1443.41833	487.65497	233.96001	1445.06982 
315	3.140	697.00104	15.42575	1534.29272	463.08063	-15.30844	1292.01221	763.79187	10.60516	1319.69702	531.92157	-12.29959	1434.98987	536.52826	12.92513	1442.50952	602.64453	159.44325	1474.08594	732.55640	97.44165	1453.01868	763.24683	95.15923	1337.12158	666.27759	213.98875	1427.08521	624.75531	221.55270	1443.38660	461.46179	293.06525	1212.51208	436.32550	197.42743	1176.00061	441.66724	170.22397	1443.36816	487.48575	233.89397	1445.07642 
316	3.150	696.98462	15.40922	1534.32043	463.04797	-15.32270	1292.01196	763.80017	10.61469	1319.70337	531.87988	-12.33490	1434.99963	536.50031	12.90600	1442.52051	602.60132	159.42984	1474.11499	732.51971	97.43104	1453.03101	763.20117	95.15450	1337.11682	666.21539	213.97427	1427.09595	624.71057	221.56288	1443.42651	461.41699	293.01300	1212.48584	436.39450	197.45731	1175.77539	441.59842	170.12344	1443.34460	487.35992	233.82910	1445.07837 
317	3.160	696.97400	15.38472	1534.36145	463.01019	-15.34102	1292.01660	763.81525	10.62610	1319.71228	531.83887	-12.37028	1435.01111	536.47498	12.88741	1442.53259	602.55768	159.41618	1474.14673	732.48077	97.42039	1453.05273	763.15332	95.15476	1337.11707	666.14923	213.96384	1427.10742	624.66351	221.56821	1443.46997	461.36017	292.93085	1212.46228	436.46475	197.49834	1175.54187	441.56412	170.03632	1443.33386	487.26962	233.74974	1445.07288 
318	3.170	696.96356	15.35456	1534.40381	462.96686	-15.36346	1292.02515	763.83612	10.63921	1319.72327	531.79871	-12.40658	1435.02307	536.44763	12.86099	1442.54492	602.51025	159.39877	1474.17639	732.43860	97.41019	1453.07739	763.10406	95.16089	1337.12329	666.08319	213.95740	1427.12256	624.61572	221.57146	1443.51050	461.29465	292.80908	1212.44678	436.51486	197.52055	1175.35046	441.55490	169.94836	1443.31677	487.21005	233.64311	1445.06116 
319	3.180	696.94348	15.32524	1534.43262	462.91852	-15.39031	1292.03479	763.86200	10.65355	1319.73572	531.75964	-12.44516	1435.03442	536.41760	12.82949	1442.55200	602.45905	159.37415	1474.19763	732.39264	97.40079	1453.09839	763.05396	95.17154	1337.13403	666.01941	213.95120	1427.14087	624.56738	221.57350	1443.54065	461.22058	292.67319	1212.44067	436.53027	197.50571	1175.22986	441.56018	169.84735	1443.28723	487.17670	233.51173	1445.04578 
320	3.190	696.90759	15.30311	1534.43872	462.86957	-15.42245	1292.04150	763.89160	10.66842	1319.74927	531.72168	-12.48767	1435.04419	536.38519	12.80069	1442.55225	602.40594	159.34515	1474.20813	732.34308	97.39317	1453.11243	763.00232	95.18415	1337.14648	665.95691	213.94148	1427.15723	624.51599	221.57361	1443.55750	461.13831	292.55038	1212.43970	436.51221	197.44997	1175.17651	441.57437	169.72679	1443.25037	487.16327	233.37482	1445.02820 
321	3.200	696.85736	15.29023	1534.42456	462.82611	-15.45786	1292.04150	763.92346	10.68281	1319.76379	531.68524	-12.53541	1435.05127	536.35126	12.77377	1442.55237	602.35236	159.31805	1474.21069	732.29065	97.38846	1453.11926	762.94904	95.19591	1337.15784	665.89063	213.92426	1427.16589	624.45618	221.57451	1443.56531	461.05103	292.44879	1212.43738	436.47391	197.35982	1175.16748	441.59363	169.59201	1443.21350	487.16107	233.25732	1445.00720 
322	3.210	696.79968	15.28377	1534.40088	462.79294	-15.49209	1292.03296	763.95618	10.69553	1319.77917	531.65033	-12.58869	1435.05505	536.32074	12.74105	1442.55688	602.29785	159.29544	1474.20886	732.23572	97.38631	1453.12146	762.89532	95.20448	1337.16736	665.81494	213.89966	1427.16687	624.38568	221.57977	1443.57068	460.96414	292.36487	1212.43103	436.43100	197.24852	1175.17590	441.60965	169.45177	1443.17871	487.15826	233.17137	1444.98169 
323	3.220	696.74121	15.27783	1534.38000	462.77109	-15.52317	1292.01624	763.98816	10.70531	1319.79565	531.61700	-12.64685	1435.05493	536.29468	12.70454	1442.56238	602.24091	159.27272	1474.20410	732.17865	97.38297	1453.12256	762.84296	95.20876	1337.17542	665.72986	213.87381	1427.16626	624.31128	221.58594	1443.57813	460.88187	292.28809	1212.42358	436.39505	197.13332	1175.17993	441.60666	169.31065	1443.14648	487.14130	233.10550	1444.95422 
324	3.230	696.68719	15.26557	1534.37256	462.75787	-15.55379	1291.99536	764.01813	10.71094	1319.81360	531.58496	-12.70871	1435.05066	536.26965	12.67337	1442.56213	602.18176	159.24451	1474.19836	732.12073	97.37258	1453.12646	762.79315	95.20902	1337.18420	665.64026	213.85704	1427.17126	624.24023	221.58566	1443.58862	460.80414	292.20667	1212.42114	436.37311	197.03033	1175.16675	441.57346	169.16417	1443.11743	487.09573	233.03439	1444.93127 
325	3.240	696.63818	15.24338	1534.38245	462.74908	-15.58688	1291.97559	764.04443	10.71136	1319.83289	531.55365	-12.77287	1435.04272	536.24469	12.64920	1442.55261	602.12262	159.21051	1474.19397	732.06494	97.34990	1453.13708	762.74567	95.20597	1337.19568	665.55151	213.85986	1427.18591	624.17334	221.57597	1443.60144	460.72653	292.11591	1212.42798	436.36694	196.94890	1175.13464	441.50742	169.00403	1443.08801	487.01141	232.93953	1444.92004 
